<svg width="14" height="14" viewBox="0 0 14 14" fill="none" xmlns="http://www.w3.org/2000/svg">
<g clip-path="url(#clip0_700_4692)">
<path d="M7 0C3.14086 0 0 3.14086 0 7C0 10.8591 3.14086 14 7 14C10.8591 14 14 10.8591 14 7C14 3.14023 10.8591 0 7 0ZM9.13799 7.66216H7.66218V9.13798C7.66218 9.50305 7.36509 9.80014 7.00002 9.80014C6.63494 9.80014 6.33785 9.50305 6.33785 9.13798V7.66216H4.86204C4.49696 7.66216 4.19987 7.36507 4.19987 7C4.19987 6.63493 4.49696 6.33784 4.86204 6.33784H6.33785V4.86202C6.33785 4.49695 6.63494 4.19986 7.00002 4.19986C7.36509 4.19986 7.66218 4.49695 7.66218 4.86202V6.33784H9.13799C9.50307 6.33784 9.80016 6.63493 9.80016 7C9.80016 7.36507 9.50307 7.66216 9.13799 7.66216Z" fill="#1E4D5A"/>
</g>
<defs>
<clipPath id="clip0_700_4692">
<rect width="14" height="14" fill="white"/>
</clipPath>
</defs>
</svg>
