<svg width="14" height="14" viewBox="0 0 14 14" fill="none" xmlns="http://www.w3.org/2000/svg">
<g clip-path="url(#clip0_700_1846)">
<path d="M13.6496 7.0001C13.6496 3.3321 10.6676 0.350098 6.99961 0.350098C3.33161 0.350098 0.349609 3.3321 0.349609 7.0001C0.349609 10.6681 3.33161 13.6501 6.99961 13.6501C10.6676 13.6501 13.6496 10.6681 13.6496 7.0001ZM7.02761 9.6181L5.05361 7.6301C4.88563 7.46212 4.7876 7.22409 4.7876 7.0001C4.7876 6.77611 4.87159 6.53807 5.05361 6.3701L7.04161 4.3821C7.39161 4.0321 7.95161 4.0321 8.30161 4.3821C8.65161 4.7321 8.65161 5.2921 8.30161 5.6421L6.94361 7.0001L8.30161 8.3581C8.65161 8.7081 8.65161 9.2681 8.30161 9.6181C7.95166 9.9681 7.37762 9.9681 7.02761 9.6181Z" fill="#1E4D5A"/>
</g>
<defs>
<clipPath id="clip0_700_1846">
<rect width="14" height="14" fill="white"/>
</clipPath>
</defs>
</svg>
