<svg width="16" height="16" viewBox="0 0 16 16" fill="none" xmlns="http://www.w3.org/2000/svg">
<g clip-path="url(#clip0_641_3381)">
<path d="M15.8334 15.8333V1.76667L10.9667 0.166672L6.3667 2.20001V4.26667L7.90003 3.56667L12.5667 5.20001V15.8333H15.8334ZM13.7 2.56667H14.4V3.96667H13.7V2.56667ZM13.7 5.06667H14.4V6.46667H13.7V5.06667ZM13.7 7.56667H14.4V8.96667H13.7V7.56667ZM13.7 10.0667H14.4V11.4667H13.7V10.0667ZM13.7 12.6H14.4V14H13.7V12.6Z" fill="#1E4D5A"/>
<path d="M0.166504 15.8333H7.53317V4.5L0.166504 7.86667V15.8333ZM1.1665 8.66667L5.8665 7.2V7.93333L1.1665 9.4V8.66667ZM1.1665 10.5667L5.8665 9.56667V10.3L1.1665 11.3V10.5667ZM1.1665 12.4333L5.8665 11.9333V12.6667L1.1665 13.1667V12.4333ZM1.1665 14.3333H5.8665V15.0333H1.1665V14.3333Z" fill="#1E4D5A"/>
<path d="M8.2666 15.8333H11.8666V5.7L8.2666 4.43333V15.8333Z" fill="#1E4D5A"/>
</g>
<defs>
<clipPath id="clip0_641_3381">
<rect width="16" height="16" fill="white"/>
</clipPath>
</defs>
</svg>
