<svg width="16" height="16" viewBox="0 0 16 16" fill="none" xmlns="http://www.w3.org/2000/svg">
<g clip-path="url(#clip0_641_3403)">
<path d="M4.19637 0C3.98597 0 3.81545 0.166561 3.81545 0.372065V3.53485C3.81545 3.74036 3.98598 3.90691 4.19637 3.90691C4.40676 3.90691 4.57729 3.74035 4.57729 3.53485V0.372065C4.57729 0.166554 4.40676 0 4.19637 0ZM11.8155 0C11.6051 0 11.4346 0.166561 11.4346 0.372065V3.53485C11.4346 3.74036 11.6051 3.90691 11.8155 3.90691C12.0259 3.90691 12.1964 3.74035 12.1964 3.53485V0.372065C12.1964 0.166554 12.0259 0 11.8155 0ZM1.5297 1.11632C0.682974 1.11632 0 1.78344 0 2.61056V5.95355H16V2.61056C16 1.78341 15.317 1.11632 14.4703 1.11632H12.5775V2.70357C12.8111 2.90792 12.9584 3.20451 12.9584 3.53494C12.9584 4.15147 12.4468 4.65126 11.8155 4.65126C11.1844 4.65126 10.6726 4.15147 10.6726 3.53494C10.6726 3.20451 10.82 2.90793 11.0535 2.70357V1.11632H4.95246V2.69768C5.18974 2.90223 5.33941 3.20151 5.33941 3.53492C5.33941 4.15145 4.82783 4.65124 4.19652 4.65124C3.56542 4.65124 3.05364 4.15145 3.05364 3.53492C3.05364 3.20737 3.19866 2.91359 3.42866 2.70933V1.11632H1.5297ZM0 6.69765V14.5058C0 15.3329 0.683 16 1.5297 16H14.4701C15.3168 16 15.9998 15.3329 15.9998 14.5058V6.69765H0Z" fill="#1E4D5A"/>
</g>
<defs>
<clipPath id="clip0_641_3403">
<rect width="16" height="16" fill="white"/>
</clipPath>
</defs>
</svg>
