<svg width="14" height="14" viewBox="0 0 14 14" fill="none" xmlns="http://www.w3.org/2000/svg">
<path fill-rule="evenodd" clip-rule="evenodd" d="M7.00061 0C3.13514 0 0 3.13453 0 7C0 10.8655 3.13502 14 7.00061 14C10.8667 14 14 10.8661 14 7C14 3.13391 10.8667 0 7.00061 0ZM8.92733 4.41012C9.11557 4.13957 9.4886 4.07336 9.75973 4.26218C10.0297 4.45099 10.0953 4.82344 9.90652 5.094L6.88031 9.4184C6.47332 9.99982 5.62191 9.97679 5.24477 9.40689L4.08193 7.65112C3.9006 7.37538 3.97601 7.00407 4.25175 6.82159C4.52749 6.63911 4.8988 6.71452 5.08128 6.99025L6.07083 8.48813L8.92548 4.40959L8.92733 4.41012Z" fill="#1E4D5A"/>
</svg>
