<svg width="14" height="14" viewBox="0 0 14 14" fill="none" xmlns="http://www.w3.org/2000/svg">
<mask id="mask0_793_6097" style="mask-type:luminance" maskUnits="userSpaceOnUse" x="0" y="0" width="14" height="14">
<path d="M0 0H14V14H0V0Z" fill="white"/>
</mask>
<g mask="url(#mask0_793_6097)">
<path fill-rule="evenodd" clip-rule="evenodd" d="M7.00009 0.000976562C10.8601 0.000976562 14.0002 3.14107 14.0002 7.00107C14.0002 10.8611 10.8601 14.0012 7.00009 14.0012C3.14009 14.0012 0 10.8611 0 7.00107C0 3.14107 3.14009 0.000976562 7.00009 0.000976562ZM8.12393 5.21761H6.37022L5.54366 9.12299C5.51197 9.27764 5.48823 9.42129 5.47238 9.55401C5.45661 9.68666 5.44865 9.80844 5.44865 9.91982C5.44865 10.1773 5.48215 10.3971 5.54974 10.5796C5.61726 10.7622 5.70916 10.9126 5.82603 11.0313C5.9429 11.15 6.08113 11.2377 6.23938 11.293C6.39764 11.3478 6.56806 11.3758 6.75065 11.3758C6.90891 11.3758 7.06536 11.3509 7.22001 11.3016C7.37459 11.2523 7.51338 11.1756 7.63634 11.0727C7.75871 10.9699 7.86096 10.8396 7.94251 10.6837C8.02349 10.5273 8.07219 10.3398 8.08797 10.122C8.04419 10.1414 7.99671 10.1591 7.94555 10.1755C7.89381 10.1913 7.81044 10.1992 7.69538 10.1992C7.52554 10.1992 7.40079 10.1664 7.32103 10.1013C7.24187 10.0355 7.20236 9.91802 7.20236 9.7476C7.20236 9.68363 7.20539 9.61973 7.21147 9.55403C7.21697 9.4889 7.22971 9.42188 7.24983 9.35495L8.12393 5.21761ZM7.5767 2.62569C7.44217 2.62569 7.3162 2.65123 7.19932 2.70297C7.08244 2.75472 6.9802 2.82535 6.89314 2.9142C6.80609 3.00307 6.73792 3.10598 6.68799 3.22341C6.63871 3.34029 6.61374 3.46569 6.61374 3.6008C6.61374 3.73591 6.63871 3.86131 6.68799 3.97819C6.73792 4.09506 6.80609 4.19616 6.89314 4.28132C6.9802 4.36657 7.08246 4.43408 7.19932 4.48343C7.31619 4.53272 7.44217 4.55768 7.5767 4.55768C7.71124 4.55768 7.83721 4.53271 7.95409 4.48343C8.07096 4.43408 8.17445 4.36656 8.2633 4.28132C8.35217 4.19615 8.42279 4.09505 8.47453 3.97819C8.52562 3.86131 8.55182 3.73591 8.55182 3.6008C8.55182 3.46569 8.52562 3.34029 8.47453 3.22341C8.42279 3.10597 8.35216 3.00305 8.2633 2.9142C8.17444 2.82535 8.07095 2.75471 7.95409 2.70297C7.83723 2.65124 7.71124 2.62569 7.5767 2.62569Z" fill="#1E4D5A"/>
</g>
</svg>
