<svg width="16" height="16" viewBox="0 0 16 16" fill="none" xmlns="http://www.w3.org/2000/svg">
<g clip-path="url(#clip0_641_3407)">
<path fill-rule="evenodd" clip-rule="evenodd" d="M8 0.5C12.1393 0.5 15.5 3.86067 15.5 8C15.5 12.1393 12.1393 15.5 8 15.5C3.86067 15.5 0.5 12.1393 0.5 8C0.5 3.86067 3.86067 0.5 8 0.5ZM7.5 3.5V8C7.5 8.1325 7.5525 8.26 7.64625 8.35375L10.3037 11.0105C10.4987 11.2062 10.8156 11.2062 11.0106 11.0105C11.2062 10.8155 11.2062 10.4987 11.0106 10.3037L8.50007 7.79313V3.50007C8.50007 3.22381 8.27632 3.00007 8.00007 3.00007C7.72381 3.00007 7.50007 3.22381 7.50007 3.50007L7.5 3.5Z" fill="#1E4D5A"/>
</g>
<defs>
<clipPath id="clip0_641_3407">
<rect width="16" height="16" fill="white"/>
</clipPath>
</defs>
</svg>
