<svg width="16" height="16" viewBox="0 0 16 16" fill="none" xmlns="http://www.w3.org/2000/svg">
<path d="M11.4741 1.45283C11.1853 1.1567 10.7875 0.99292 10.3744 0.99292H6.56872C5.96843 0.99292 5.48438 1.47622 5.48438 2.07726V11.6856C5.48438 12.2859 5.97573 12.7772 6.57602 12.7772H13.9156C14.5159 12.7772 14.9999 12.2939 14.9999 11.6929V5.61761C14.9999 5.2045 14.8361 4.80674 14.54 4.51792L11.4741 1.45283ZM12.3091 9.50163H8.17584C7.95721 9.50163 7.78613 9.3298 7.78613 9.11192C7.78613 8.89329 7.95796 8.72221 8.17584 8.72221H12.3091C12.5278 8.72221 12.6988 8.89404 12.6988 9.11192C12.6988 9.3298 12.527 9.50163 12.3091 9.50163ZM12.3091 6.6624H8.17584C7.95721 6.6624 7.78613 6.48327 7.78613 6.27269C7.78613 6.05406 7.95796 5.88298 8.17584 5.88298H12.3091C12.5278 5.88298 12.6988 6.05481 12.6988 6.27269C12.6988 6.48327 12.527 6.6624 12.3091 6.6624Z" fill="#1E4D5A"/>
<path d="M2.09178 15.0075H9.43055C10.0308 15.0075 10.5149 14.5242 10.5149 13.9231V13.5568H6.57597C5.54647 13.5568 4.70415 12.7145 4.70415 11.685L4.70488 3.99526V3.21509H2.08434C1.48405 3.21509 1 3.69839 1 4.29943V13.9159C1 14.5162 1.49135 15.0075 2.09164 15.0075L2.09178 15.0075Z" fill="#1E4D5A"/>
</svg>
