<svg width="14" height="14" viewBox="0 0 14 14" fill="none" xmlns="http://www.w3.org/2000/svg">
<path d="M7 0C3.13405 0 0 3.13405 0 7C0 10.8659 3.13405 14 7 14C10.8659 14 14 10.8659 14 7C14 3.13405 10.8659 0 7 0ZM10.5431 9.06336C10.9517 9.47201 10.9517 10.1346 10.5431 10.5431C10.1344 10.9517 9.47185 10.9517 9.06336 10.5431L7 8.4797L4.93664 10.5431C4.52799 10.9517 3.86544 10.9517 3.45694 10.5431C3.04829 10.1344 3.04829 9.47185 3.45694 9.06336L5.5203 7L3.45694 4.93664C3.04829 4.52799 3.04829 3.86544 3.45694 3.45694C3.8656 3.04829 4.52815 3.04829 4.93664 3.45694L7 5.5203L9.06336 3.45694C9.47201 3.04829 10.1346 3.04829 10.5431 3.45694C10.9517 3.8656 10.9517 4.52815 10.5431 4.93664L8.4797 7L10.5431 9.06336Z" fill="white"/>
</svg>
