<svg xmlns="http://www.w3.org/2000/svg" version="1.1" xmlns:xlink="http://www.w3.org/1999/xlink" width="512" height="512" x="0" y="0" viewBox="0 0 512 512" style="enable-background:new 0 0 512 512" xml:space="preserve" class=""><g><path fill="#ffffff" d="M64.31 138.048h272.099c3.23 0 6.333 1.291 8.617 3.574 1.214 1.214 2.337 2.344 3.545 3.558a12.192 12.192 0 0 1 3.549 8.591v57.59c0 3.219-1.282 6.312-3.552 8.594a850.612 850.612 0 0 1-3.554 3.554 12.202 12.202 0 0 1-8.594 3.552H64.299c-3.217 0-6.31-1.28-8.591-3.549-1.214-1.208-2.344-2.331-3.558-3.545a12.202 12.202 0 0 1-3.574-8.617v-57.568c0-3.228 1.282-6.324 3.565-8.607l3.562-3.562a12.176 12.176 0 0 1 8.607-3.565z" opacity="1" data-original="#ffffff" class=""></path><path fill="#f7ef6f" d="M242.193 172.223v17.311a7.523 7.523 0 0 0 7.523 7.523h52.56a7.523 7.523 0 0 0 7.523-7.523v-17.311a7.523 7.523 0 0 0-7.523-7.523h-52.56a7.523 7.523 0 0 0-7.523 7.523zM64.31 259.051h272.099c3.23 0 6.333 1.291 8.617 3.574 1.214 1.214 2.337 2.344 3.545 3.558a12.192 12.192 0 0 1 3.549 8.591v57.59c0 3.219-1.282 6.312-3.552 8.594a850.612 850.612 0 0 1-3.554 3.554 12.202 12.202 0 0 1-8.594 3.552H64.299c-3.217 0-6.31-1.28-8.591-3.549-1.214-1.208-2.344-2.331-3.558-3.545a12.202 12.202 0 0 1-3.574-8.617v-57.568c0-3.228 1.282-6.324 3.565-8.607l3.562-3.562a12.176 12.176 0 0 1 8.607-3.565z" opacity="1" data-original="#c9def7" class=""></path><path fill="#ffffff" d="M242.193 293.226v17.311a7.523 7.523 0 0 0 7.523 7.523h52.56a7.523 7.523 0 0 0 7.523-7.523v-17.311a7.523 7.523 0 0 0-7.523-7.523h-52.56a7.523 7.523 0 0 0-7.523 7.523zM64.31 380.054h272.099c3.23 0 6.333 1.291 8.617 3.574 1.214 1.214 2.337 2.344 3.545 3.558a12.192 12.192 0 0 1 3.549 8.591v57.59c0 3.219-1.282 6.312-3.552 8.594a850.612 850.612 0 0 1-3.554 3.554 12.202 12.202 0 0 1-8.594 3.552H64.299c-3.217 0-6.31-1.28-8.591-3.549-1.214-1.208-2.344-2.331-3.558-3.545a12.202 12.202 0 0 1-3.574-8.617v-57.568c0-3.228 1.282-6.324 3.565-8.607l3.562-3.562a12.176 12.176 0 0 1 8.607-3.565z" opacity="1" data-original="#ffffff" class=""></path><path fill="#f7ef6f" d="M242.193 414.229v17.311a7.523 7.523 0 0 0 7.523 7.523h52.56a7.523 7.523 0 0 0 7.523-7.523v-17.311a7.523 7.523 0 0 0-7.523-7.523h-52.56a7.523 7.523 0 0 0-7.523 7.523zM434.44 171.883H287.006c-23.571 0-37.272-26.654-23.553-45.821L337.18 23.05c11.554-16.144 35.556-16.142 47.108.003l73.707 103.012c13.715 19.168.014 45.818-23.555 45.818z" opacity="1" data-original="#c9def7" class=""></path><path fill="#ffffff" d="m378.663 62.979-3.833 34.52a10.424 10.424 0 0 1-10.361 9.274h-7.491a10.425 10.425 0 0 1-10.361-9.274l-3.833-34.52c-.686-6.175 4.148-11.575 10.361-11.575h15.157c6.213-.001 11.047 5.4 10.361 11.575zM372.582 134.933c0 6.53-5.319 11.85-11.868 11.85-6.53 0-11.85-5.32-11.85-11.85 0-6.549 5.32-11.868 11.85-11.868 6.549 0 11.868 5.319 11.868 11.868z" opacity="1" data-original="#ffffff" class=""></path><g fill="#0c76f0"><path d="M82.627 173.037h16.316c2.707 0 4.901-2.192 4.901-4.901s-2.195-4.901-4.901-4.901H82.627c-2.707 0-4.901 2.192-4.901 4.901s2.194 4.901 4.901 4.901zM103.844 196.983a4.9 4.9 0 0 0-4.901-4.901H82.627c-2.707 0-4.901 2.192-4.901 4.901s2.195 4.901 4.901 4.901h16.316a4.9 4.9 0 0 0 4.901-4.901zM124.344 173.037h16.314c2.707 0 4.901-2.192 4.901-4.901s-2.195-4.901-4.901-4.901h-16.314c-2.707 0-4.901 2.192-4.901 4.901s2.194 4.901 4.901 4.901zM124.344 201.884h16.314c2.707 0 4.901-2.192 4.901-4.901s-2.195-4.901-4.901-4.901h-16.314c-2.707 0-4.901 2.192-4.901 4.901s2.194 4.901 4.901 4.901zM166.059 173.037h16.316c2.707 0 4.901-2.192 4.901-4.901s-2.195-4.901-4.901-4.901h-16.316c-2.707 0-4.901 2.192-4.901 4.901s2.194 4.901 4.901 4.901zM166.059 201.884h16.316c2.707 0 4.901-2.192 4.901-4.901s-2.195-4.901-4.901-4.901h-16.316c-2.707 0-4.901 2.192-4.901 4.901s2.194 4.901 4.901 4.901zM82.627 294.039h16.316c2.707 0 4.901-2.192 4.901-4.901s-2.195-4.901-4.901-4.901H82.627c-2.707 0-4.901 2.192-4.901 4.901s2.194 4.901 4.901 4.901zM103.844 317.985a4.9 4.9 0 0 0-4.901-4.901H82.627c-2.707 0-4.901 2.192-4.901 4.901s2.195 4.901 4.901 4.901h16.316a4.9 4.9 0 0 0 4.901-4.901zM124.344 294.039h16.314c2.707 0 4.901-2.192 4.901-4.901s-2.195-4.901-4.901-4.901h-16.314c-2.707 0-4.901 2.192-4.901 4.901s2.194 4.901 4.901 4.901zM124.344 322.886h16.314c2.707 0 4.901-2.192 4.901-4.901s-2.195-4.901-4.901-4.901h-16.314c-2.707 0-4.901 2.192-4.901 4.901s2.194 4.901 4.901 4.901zM166.059 294.039h16.316c2.707 0 4.901-2.192 4.901-4.901s-2.195-4.901-4.901-4.901h-16.316a4.9 4.9 0 0 0-4.901 4.901 4.899 4.899 0 0 0 4.901 4.901zM166.059 322.886h16.316c2.707 0 4.901-2.192 4.901-4.901s-2.195-4.901-4.901-4.901h-16.316a4.9 4.9 0 0 0-4.901 4.901 4.899 4.899 0 0 0 4.901 4.901zM249.715 322.962h52.56c6.852 0 12.425-5.576 12.425-12.425v-17.312c0-6.849-5.574-12.425-12.425-12.425h-52.56c-6.849 0-12.423 5.576-12.423 12.425v17.312c.001 6.849 5.574 12.425 12.423 12.425zm-2.62-29.737a2.625 2.625 0 0 1 2.62-2.623h52.56a2.627 2.627 0 0 1 2.623 2.623v17.312a2.627 2.627 0 0 1-2.623 2.623h-52.56a2.624 2.624 0 0 1-2.62-2.623z" fill="#1e4d5a" opacity="1" data-original="#0c76f0" class=""></path><path d="M64.31 375.152c-4.564 0-8.85 1.776-12.071 5.002l-3.563 3.561a16.965 16.965 0 0 0-5.002 12.076v57.565c0 4.49 1.826 8.893 5.014 12.09l3.566 3.547c3.18 3.164 7.569 4.978 12.045 4.978H94.26v27.09a4.9 4.9 0 0 0 4.901 4.901 4.9 4.9 0 0 0 4.901-4.901v-27.09h192.571v27.09c0 2.709 2.195 4.901 4.901 4.901s4.901-2.192 4.901-4.901v-27.09h29.986c4.475 0 8.867-1.814 12.052-4.978l3.573-3.575c3.161-3.183 4.975-7.572 4.975-12.047v-57.593c0-4.475-1.814-8.864-4.98-12.052l-3.551-3.561c-3.185-3.183-7.586-5.011-12.081-5.011h-29.974V352.97h29.986c4.475 0 8.867-1.814 12.052-4.978l3.573-3.575a16.997 16.997 0 0 0 4.975-12.052v-57.588c0-4.475-1.814-8.864-5.117-12.191l-3.415-3.422c-3.185-3.183-7.586-5.011-12.081-5.011h-29.974v-22.189h29.986c4.475 0 8.867-1.814 12.052-4.978l3.573-3.571a16.997 16.997 0 0 0 4.975-12.052v-34.576h77.418c12.748 0 24.29-7.045 30.118-18.379 5.83-11.339 4.841-24.826-2.575-35.193l-73.706-103.01c-6.438-8.998-16.474-14.158-27.538-14.163h-.005c-11.061 0-21.1 5.16-27.538 14.158l-73.725 103.01c-2.204 3.079-3.769 6.45-4.828 9.941H64.31c-4.564 0-8.85 1.776-12.071 5.002l-3.563 3.561a16.955 16.955 0 0 0-5.002 12.071v57.569c0 4.494 1.826 8.898 5.006 12.076l3.573 3.561a17.207 17.207 0 0 0 12.045 4.973H94.26v22.189H64.31c-4.564 0-8.85 1.776-12.071 5.002l-3.563 3.561a16.955 16.955 0 0 0-5.002 12.071v57.569c0 4.494 1.826 8.898 5.006 12.076l3.573 3.561c3.18 3.164 7.569 4.978 12.045 4.978H94.26v22.184H64.31zm277.249 11.942 3.535 3.547a7.345 7.345 0 0 1 2.125 5.136v57.593a7.347 7.347 0 0 1-2.13 5.14l-3.53 3.532a7.35 7.35 0 0 1-5.138 2.125H64.297a7.342 7.342 0 0 1-5.138-2.13l-3.539-3.523a7.36 7.36 0 0 1-2.144-5.16V395.79c0-1.943.756-3.772 2.13-5.145l3.566-3.561a7.305 7.305 0 0 1 5.138-2.13h272.1c1.911 0 3.79.78 5.149 2.14zm-74.12-258.181 73.725-103.01c4.576-6.394 11.707-10.061 19.569-10.061h.002c7.861.005 14.993 3.671 19.566 10.066l73.706 103.01c5.351 7.476 6.038 16.829 1.833 25.003-4.205 8.18-12.205 13.062-21.402 13.062H287.005c-9.197 0-17.195-4.882-21.399-13.062s-3.518-17.528 1.833-25.008zm-1.257 40.688a33.73 33.73 0 0 0 20.823 7.184h17.893v12.751a2.627 2.627 0 0 1-2.623 2.623h-52.56a2.624 2.624 0 0 1-2.62-2.623v-17.312a2.625 2.625 0 0 1 2.62-2.623zM59.16 220.034l-3.544-3.532a7.337 7.337 0 0 1-2.139-5.15v-57.569c0-1.915.775-3.786 2.13-5.14l3.566-3.561a7.305 7.305 0 0 1 5.138-2.13h188.887c.009 6.305 1.539 11.642 4.535 16.848h-8.017c-6.849 0-12.423 5.576-12.423 12.425v17.312c0 6.849 5.574 12.425 12.423 12.425h52.56c6.852 0 12.425-5.576 12.425-12.425v-12.751h32.518v34.576a7.344 7.344 0 0 1-2.123 5.136l-3.537 3.537a7.35 7.35 0 0 1-5.138 2.125H64.297a7.332 7.332 0 0 1-5.137-2.126zm44.902 11.927h192.571v22.189H104.062zM59.16 341.035l-3.544-3.532a7.337 7.337 0 0 1-2.139-5.15v-57.569c0-1.914.775-3.786 2.13-5.14l3.566-3.561a7.305 7.305 0 0 1 5.138-2.13h272.1c1.912 0 3.791.78 5.157 2.149l3.527 3.537a7.345 7.345 0 0 1 2.125 5.136v57.588a7.344 7.344 0 0 1-2.123 5.136l-3.537 3.542a7.35 7.35 0 0 1-5.138 2.125H64.298a7.347 7.347 0 0 1-5.138-2.131zm44.902 11.932h192.571v22.184H104.062z" fill="#1e4d5a" opacity="1" data-original="#0c76f0" class=""></path><path d="M98.943 405.243H82.627c-2.707 0-4.901 2.192-4.901 4.901s2.195 4.901 4.901 4.901h16.316c2.707 0 4.901-2.192 4.901-4.901s-2.194-4.901-4.901-4.901zM98.943 434.09H82.627c-2.707 0-4.901 2.192-4.901 4.901s2.195 4.901 4.901 4.901h16.316c2.707 0 4.901-2.192 4.901-4.901s-2.194-4.901-4.901-4.901zM140.658 405.243h-16.314c-2.707 0-4.901 2.192-4.901 4.901s2.195 4.901 4.901 4.901h16.314c2.707 0 4.901-2.192 4.901-4.901s-2.194-4.901-4.901-4.901zM140.658 434.09h-16.314c-2.707 0-4.901 2.192-4.901 4.901s2.195 4.901 4.901 4.901h16.314c2.707 0 4.901-2.192 4.901-4.901s-2.194-4.901-4.901-4.901zM182.375 405.243h-16.316c-2.707 0-4.901 2.192-4.901 4.901s2.195 4.901 4.901 4.901h16.316c2.707 0 4.901-2.192 4.901-4.901s-2.194-4.901-4.901-4.901zM182.375 434.09h-16.316c-2.707 0-4.901 2.192-4.901 4.901s2.195 4.901 4.901 4.901h16.316c2.707 0 4.901-2.192 4.901-4.901s-2.194-4.901-4.901-4.901zM237.293 414.227v17.312c0 6.849 5.574 12.425 12.423 12.425h52.56c6.852 0 12.425-5.576 12.425-12.425v-17.312c0-6.849-5.574-12.42-12.425-12.42h-52.56c-6.85 0-12.423 5.571-12.423 12.42zm67.606 0v17.312a2.627 2.627 0 0 1-2.623 2.623h-52.56a2.624 2.624 0 0 1-2.62-2.623v-17.312a2.62 2.62 0 0 1 2.62-2.618h52.56a2.623 2.623 0 0 1 2.623 2.618zM341.746 98.041a15.306 15.306 0 0 0 15.232 13.631h7.491a15.31 15.31 0 0 0 15.235-13.631l3.829-34.523a15.319 15.319 0 0 0-3.81-11.908 15.34 15.34 0 0 0-11.42-5.107h-15.158a15.34 15.34 0 0 0-11.42 5.107 15.319 15.319 0 0 0-3.81 11.908zm7.282-39.898a5.475 5.475 0 0 1 4.116-1.838h15.158c1.591 0 3.054.656 4.116 1.838a5.468 5.468 0 0 1 1.374 4.293l-3.831 34.523a5.518 5.518 0 0 1-5.492 4.911h-7.491a5.515 5.515 0 0 1-5.49-4.911l-3.834-34.523a5.468 5.468 0 0 1 1.374-4.293zM360.714 118.163c-9.235 0-16.75 7.524-16.75 16.771 0 9.238 7.514 16.752 16.75 16.752 9.247 0 16.769-7.514 16.769-16.752 0-9.247-7.522-16.771-16.769-16.771zm0 23.72c-3.831 0-6.947-3.116-6.947-6.95 0-3.843 3.116-6.969 6.947-6.969 3.841 0 6.966 3.125 6.966 6.969 0 3.834-3.125 6.95-6.966 6.95z" fill="#1e4d5a" opacity="1" data-original="#0c76f0" class=""></path></g></g></svg>