<svg width="69" height="33" viewBox="0 0 69 33" fill="none" xmlns="http://www.w3.org/2000/svg">
<path d="M28.0383 7.57727L21.5306 26.1882C19.7547 31.2339 17.6692 32.9883 14.6607 32.9883C12.141 32.9883 9.85684 31.2883 9.45765 28.1952L12.2305 26.2776C12.4662 27.3812 13.4807 27.9971 14.6588 27.9971C16.0725 27.9971 16.7793 27.2918 17.5056 25.1041H14.8223L8.69434 7.57727H14.4582C16.6157 13.7265 17.5952 17.9776 18.2651 21.9022H18.5377C19.3536 17.8144 20.4401 13.3107 22.5081 7.57727H28.0363H28.0383Z" fill="#1E4D5A"/>
<path d="M42.2671 26.1532V16.7671C42.2671 14.3074 41.2702 13.0057 39.0951 13.0057C36.6669 13.0057 34.9981 14.9952 34.9981 18.0164V26.1552H29.5049V7.57921H35.0876L34.2542 15.5373H34.4528C35.6134 9.56873 38.0786 7.00023 41.975 7.00023C46.4167 7.00023 47.7584 10.309 47.7584 14.8495V26.1532H42.2652H42.2671Z" fill="#1E4D5A"/>
<path d="M62.3743 26.1532C60.1622 21.4514 59.5469 20.2566 59.3288 18.5565H59.1652C58.9666 20.1303 58.6395 20.7093 56.0652 26.1532H49.5205L55.7926 16.6758L49.9002 7.57921H56.5345C58.583 12.6618 58.9627 13.439 59.1457 14.8689H59.3269C59.4534 13.5847 59.7066 12.9688 61.8836 7.57921H68.5178L62.6625 16.3883L68.9346 26.1552H62.3723L62.3743 26.1532Z" fill="#1E4D5A"/>
<path d="M5.49318 20.0739V0H0V19.9205C0 23.3633 2.79625 26.1532 6.24677 26.1532H8.21544V21.2339H6.65374C6.01115 21.2339 5.49124 20.7151 5.49124 20.0739H5.49318Z" fill="#1E4D5A"/>
</svg>
