<svg width="29" height="36" viewBox="0 0 29 36" fill="none" xmlns="http://www.w3.org/2000/svg">
<path d="M5.40039 4.49902V7.19922C5.40039 8.68763 6.6122 9.8993 8.10059 9.89941H20.7021C22.1906 9.89941 23.4023 8.6877 23.4023 7.19922V4.49902H25.2031C27.1876 4.49911 28.8027 6.11242 28.8027 8.09863L28.8008 32.4004C28.8007 34.385 27.1874 36 25.2012 36H3.59961C1.61518 35.9998 6.95607e-05 34.3865 0 32.4004V8.09863C6.32556e-05 6.11417 1.61348 4.4992 3.59961 4.49902H5.40039ZM14.4023 12.5977C8.94267 12.5977 4.50098 17.0393 4.50098 22.499C4.50111 27.9586 8.94311 32.4003 14.4023 32.4004C19.862 32.4004 24.3036 27.9587 24.3037 22.499C24.3037 17.0393 19.8621 12.5977 14.4023 12.5977ZM14.4023 14.4004C18.8676 14.4004 22.5028 18.0357 22.5029 22.501C22.5029 26.9663 18.8677 30.6015 14.4023 30.6016C9.93699 30.6016 6.30176 26.9663 6.30176 22.501C6.30187 18.0357 9.93706 14.4004 14.4023 14.4004ZM18.9219 19.8164C18.3346 19.2291 17.3822 19.2291 16.7949 19.8164L13.6055 23.0059L12.0107 21.4111C11.4235 20.8239 10.472 20.8239 9.88477 21.4111C9.2975 21.9984 9.2975 22.9498 9.88477 23.5371L12.0107 25.6641C12.8916 26.5447 14.3193 26.5446 15.2002 25.6641L18.9219 21.9424C19.5089 21.3552 19.5088 20.4036 18.9219 19.8164ZM14.4004 0C16.0762 1.43089e-05 17.4851 1.14932 17.8867 2.7002H20.7002C21.1963 2.7002 21.5996 3.10348 21.5996 3.59961V7.19922C21.5996 7.69537 21.1963 8.09863 20.7002 8.09863H8.10059C7.60444 8.09863 7.20117 7.69537 7.20117 7.19922V3.59961C7.20119 3.10348 7.60445 2.7002 8.10059 2.7002H10.9141C11.314 1.14932 12.7263 0 14.4004 0Z" fill="#1E4D5A"/>
</svg>
