<svg width="46" height="35" viewBox="0 0 46 35" fill="none" xmlns="http://www.w3.org/2000/svg">
<path d="M12.3025 21.4232C15.429 21.4232 17.9725 18.9007 17.9725 15.7994C17.9725 12.6984 15.429 10.1757 12.3025 10.1757C9.176 10.1757 6.63211 12.6982 6.63211 15.7994C6.63195 18.9005 9.17575 21.4232 12.3025 21.4232ZM12.3025 22.8658C5.3739 22.8658 0 26.9538 0 30.4711C0 34.4512 5.9129 35 12.3025 35C18.6921 35 24.6046 34.4514 24.6046 30.4711C24.6046 26.9537 19.2307 22.8658 12.3025 22.8658ZM32.059 19.0287C32.059 21.4704 34.062 23.4565 36.5236 23.4565C38.9856 23.4565 40.9886 21.4705 40.9886 19.0287C40.9886 16.587 38.9856 14.6008 36.5236 14.6008C34.0618 14.601 32.059 16.587 32.059 19.0287ZM36.5236 24.189C31.6528 24.189 27.0481 27.0685 27.0481 30.1138C27.0481 33.2786 31.6025 33.715 36.5236 33.715C41.4455 33.715 46 33.2786 46 30.1138C46 27.0685 41.3948 24.189 36.5236 24.189ZM19.8213 12.8245L23.171 12.8846V15.3335C23.171 15.6217 23.3416 15.8828 23.6063 16.0015C23.7036 16.0445 23.8067 16.0659 23.9095 16.0659C24.0865 16.0659 24.2615 16.0029 24.3992 15.8821L27.799 12.8955L37.277 12.8247C37.6827 12.8218 38.01 12.495 38.01 12.0924L38.0098 0.732357C38.0098 0.327511 37.6791 0 37.2714 0H19.8346C19.4267 0 19.0961 0.327519 19.0961 0.732357V12.0919C19.0961 12.491 19.4188 12.8171 19.8212 12.8243L19.8213 12.8245Z" fill="#1E4D5A"/>
</svg>
