<svg width="36" height="36" viewBox="0 0 36 36" fill="none" xmlns="http://www.w3.org/2000/svg">
<path d="M19.1375 3.65124V0.884704C19.1375 0.403029 19.5386 0 20.0179 0C20.4973 0 20.8999 0.403029 20.8999 0.884704V3.65124C20.8999 4.13291 20.4989 4.53594 20.0179 4.53594C19.5386 4.53594 19.1375 4.13291 19.1375 3.65124ZM6.8564 4.53594C7.33574 4.53594 7.73841 4.13291 7.73841 3.65124V0.884704C7.73841 0.403029 7.33577 0 6.8564 0C6.37702 0 5.97598 0.403029 5.97598 0.884704V3.65124C5.97758 4.13291 6.37862 4.53594 6.8564 4.53594ZM17.5238 27.6041C17.5238 22.3568 21.525 17.9528 26.721 17.4787L26.8744 17.4642V10.9163L0 10.9179V26.0173C0 28.3005 1.84871 30.1582 4.12086 30.1582H17.8449L17.7954 29.9511C17.6148 29.182 17.5237 28.3936 17.5237 27.6036L17.5238 27.6041ZM26.8744 7.29439C26.8744 5.04166 25.072 3.19696 22.8319 3.15517L22.661 3.15196V3.65131C22.661 5.11566 21.4754 6.30704 20.0181 6.30704C18.5609 6.30704 17.3753 5.11566 17.3753 3.65131V3.15357H9.501V3.65131C9.501 5.11566 8.3154 6.30704 6.85654 6.30704C5.3993 6.30704 4.21369 5.11566 4.21369 3.65131L4.21529 3.15196L4.04432 3.15517C1.80251 3.19692 0.00186391 5.0418 0.00186391 7.29439V9.14731H26.8745L26.8744 7.29439ZM36 27.6041C36 32.2348 32.2514 36 27.6431 36C23.0347 36 19.2861 32.2331 19.2861 27.6041C19.2861 22.9733 23.0347 19.2082 27.6431 19.2082C32.2514 19.2082 36 22.975 36 27.6041ZM28.5239 22.1451C28.5239 21.6553 28.1292 21.2604 27.6435 21.2604C27.1561 21.2604 26.7631 21.657 26.7631 22.1451V27.3218L24.4813 30.5492C24.2001 30.9474 24.2927 31.4997 24.689 31.7839C24.8392 31.8915 25.015 31.9477 25.1987 31.9477C25.4847 31.9477 25.7516 31.8096 25.9178 31.5752L28.3625 28.1166C28.468 27.9673 28.5255 27.7874 28.5255 27.6044L28.5239 22.1451Z" fill="#1E4D5A"/>
</svg>
