<svg width="44" height="32" viewBox="0 0 44 32" fill="none" xmlns="http://www.w3.org/2000/svg">
<path fill-rule="evenodd" clip-rule="evenodd" d="M34.6489 18.2761C34.5974 18.2324 34.5442 18.1905 34.4909 18.1504L28.6271 13.6603C29.1945 13.3853 31.1962 12.4767 30.4818 11.6901C29.7877 10.9253 29.3194 12.524 27.483 12.6989C25.8174 12.8573 24.7101 12.0616 24.1978 12.3146L19.8841 14.4324C17.9541 15.3792 15.5207 13.9626 15.5814 13.1687C15.5961 12.8445 15.9964 12.6625 16.2535 12.5495C22.7669 9.68709 24.2548 6.1474 30.6487 5.57909L37.5789 14.6126C36.8187 16.3188 36.2512 17.2274 34.8703 18.462L34.6489 18.2761ZM13.3763 4.9435L4.4587 16.5665C4.07673 17.0654 3.35503 17.1619 2.85186 16.7832L0.451704 14.9714C-0.0514716 14.5926 -0.148785 13.877 0.233177 13.3781L9.1508 1.75509C9.53276 1.25616 10.2545 1.15967 10.7576 1.53841L13.1578 3.35021C13.661 3.72895 13.7583 4.44457 13.3763 4.9435ZM34.851 0.447895C34.469 -0.0510377 33.7473 -0.14753 33.2442 0.231211L30.8422 2.04301C30.339 2.42175 30.2417 3.13737 30.6237 3.6363L39.5413 15.2593C39.9233 15.7582 40.645 15.8547 41.1481 15.476L43.5483 13.6642C44.0515 13.2854 44.1488 12.5698 43.7668 12.0709L34.851 0.447895ZM33.9034 21.9109L33.9255 21.9273C34.5296 21.137 34.7904 20.1355 34.3423 19.7986C34.1146 19.6275 34.1183 19.3871 34.1036 19.3598L26.9015 13.8682C23.1737 13.7353 26.6756 12.3897 20.3991 15.4706C16.7741 17.2496 11.9794 13.1617 15.7826 11.4901C17.5712 10.7053 18.8787 9.93504 20.4931 8.88255C17.9644 7.07989 16.7836 7.22556 13.5879 6.5773L6.60952 15.6726C7.79949 18.3293 8.3192 20.4794 10.6239 22.6446L22.6211 31.7069C23.2638 32.1913 24.0333 32.0565 24.5053 31.4411C25.148 30.6035 24.7275 30.0262 24.2059 29.5237C23.7358 29.0703 24.3216 27.8212 25.4253 29.0758C26.0386 29.7731 27.37 29.3543 27.7409 28.1143C28.1908 26.6084 26.3949 26.4172 27.1294 25.6343C27.965 24.7438 28.5545 27.1766 30.2366 26.3571C31.3145 25.8327 32.0931 24.3141 30.7783 22.9339C29.9593 22.0726 30.8774 21.5482 31.5147 22.0307C32.2804 22.6061 33.2188 22.566 33.9038 21.9105L33.9034 21.9109Z" fill="#1E4D5A"/>
</svg>
