<svg width="56" height="27" viewBox="0 0 56 27" fill="none" xmlns="http://www.w3.org/2000/svg">
<path d="M55.1329 14.2686C54.9479 10.2662 54.4066 6.26194 52.9851 2.4597L52.6209 0.872358C45.4044 2.28872 39.7594 7.53259 35.7656 13.4545C30.506 11.8613 24.9583 11.8069 19.5625 12.9571C16.9415 8.98781 13.6585 5.47506 9.63155 2.86576C7.54021 1.5038 5.02436 0.612011 2.57473 0L2.14828 1.71169C1.43169 3.64486 0.954616 5.62467 0.627478 7.60448C-0.29357 13.54 -0.141684 19.5027 0.699527 25.4402L5.89868 24.4144C5.71369 23.6081 5.53844 22.6677 5.39044 21.7779C4.53171 16.2931 4.08579 10.5266 5.17235 5.05346C8.53525 7.07212 11.2439 10.0797 13.5144 13.2699C14.8015 15.036 15.9679 17.1091 16.9357 19.0617C18.953 18.5255 21.1281 17.9912 23.2448 17.8455C27.4566 17.5035 31.9353 17.7775 35.9116 19.1822L38.2152 20.0448C39.8898 16.5612 42.0883 13.1689 44.6878 10.3051C46.3021 8.51375 48.0936 6.90115 50.1265 5.64604C51.3727 12.0362 50.6406 18.8091 49.3359 25.1255L54.5351 26.1513C55.1056 22.1723 55.2809 18.269 55.129 14.2666L55.1329 14.2686Z" fill="#1E4D5A"/>
</svg>
