<svg width="16" height="16" viewBox="0 0 16 16" fill="none" xmlns="http://www.w3.org/2000/svg">
<path d="M2.05001 3C1.91242 3 1.7819 3.03171 1.66176 3.08409L7.60075 8.78721C7.85746 9.03363 8.13092 9.03383 8.38826 8.78721L14.3381 3.08409C14.2179 3.03171 14.0874 3 13.9499 3H2.05001ZM1.01095 3.99153C1.00434 4.04411 1 4.09918 1 4.15385V11.8461C1 12.4854 1.4683 13 2.05001 13H13.95C14.5317 13 15 12.4854 15 11.8461V4.15385C15 4.09918 14.9957 4.04411 14.9891 3.99163L9.07739 9.65862C8.46057 10.2497 7.52851 10.2508 6.91178 9.65862L1.01095 3.99153Z" fill="#1E4D5A"/>
</svg>
