<svg width="16" height="16" viewBox="0 0 16 16" fill="none" xmlns="http://www.w3.org/2000/svg">
<path fill-rule="evenodd" clip-rule="evenodd" d="M2.55392 2.72425L4.47885 1.66051C4.61697 1.58425 4.76385 1.56801 4.91573 1.61176C5.06761 1.65613 5.18261 1.74801 5.25824 1.88676L6.76077 4.63929C6.88202 4.8618 6.84702 5.12617 6.67202 5.30929L5.4714 6.56429C5.30077 6.74304 5.26265 6.99741 5.3739 7.21804C5.9839 8.42492 7.19816 9.8623 8.28643 10.6655C8.48518 10.8124 8.74268 10.8174 8.94706 10.6786L10.3845 9.70488C10.5945 9.563 10.8608 9.57238 11.0595 9.72926L13.5227 11.6706C13.6471 11.7687 13.719 11.8968 13.7371 12.0543C13.7552 12.2112 13.7146 12.3531 13.6165 12.4768L12.2458 14.1975C12.1114 14.3663 11.9102 14.4419 11.6983 14.4044C7.14325 13.5963 2.29458 7.85746 2.25831 3.23132C2.25706 3.01444 2.36581 2.82882 2.55394 2.72444L2.55392 2.72425Z" fill="#1E4D5A"/>
</svg>
