<svg width="16" height="16" viewBox="0 0 16 16" fill="none" xmlns="http://www.w3.org/2000/svg">
<path d="M15.5962 13.6542L12.0205 10.0819C11.9256 9.9871 11.9049 9.84196 11.973 9.72941C13.4792 7.19692 13.073 3.97122 10.9887 1.88895C9.72271 0.624171 8.0387 -0.0424525 6.25377 0.00209645C4.46599 0.049489 2.82037 0.810739 1.61971 2.14361C-0.642444 4.66426 -0.520845 8.65123 1.89545 11.0327C3.97972 13.0884 7.19364 13.4793 9.71386 11.9865C9.82356 11.9184 9.9718 11.9391 10.0667 12.0339L13.5978 15.5616C13.8884 15.8519 14.2649 16 14.6385 16C14.9646 16 15.2878 15.8874 15.5427 15.6564C15.8274 15.4017 15.9904 15.0492 15.9993 14.6671C16.0112 14.2879 15.863 13.9207 15.5961 13.6541L15.5962 13.6542ZM9.54485 3.32845C11.2645 5.04643 11.2645 7.84243 9.54485 9.56057C7.82523 11.2787 5.02655 11.2786 3.30677 9.56057C1.59014 7.84259 1.59014 5.04659 3.30677 3.32845C4.1399 2.49908 5.24872 2.03998 6.42597 2.03998C7.01597 2.03998 7.5882 2.15549 8.11602 2.37172C8.64377 2.59091 9.12705 2.91377 9.54509 3.32845H9.54485Z" fill="#1E4D5A"/>
</svg>
