<svg width="16" height="16" viewBox="0 0 16 16" fill="none" xmlns="http://www.w3.org/2000/svg">
<path d="M13.0625 10.1318C12.9371 10.2742 12.8788 10.4636 12.9023 10.6518L13.3771 14.6519C13.4022 14.8638 13.3698 15.0785 13.2833 15.2736C13.1967 15.4686 13.0592 15.6368 12.8852 15.7605C12.6839 15.9009 12.4444 15.9767 12.1988 15.9776C12.0178 15.9774 11.8394 15.9343 11.6783 15.8519L8.29786 14.1833C8.11613 14.1009 7.90759 14.1009 7.72586 14.1833L4.33386 15.8748C4.14338 15.9706 3.93036 16.0127 3.71766 15.9967C3.50501 15.9805 3.30076 15.9068 3.12695 15.7833C2.95291 15.6597 2.81539 15.4915 2.72881 15.2964C2.64229 15.1013 2.60988 14.8866 2.63503 14.6747L3.10978 10.6746C3.13332 10.4864 3.07505 10.2971 2.94962 10.1546L0.301363 7.15448C0.0187672 6.83751 -0.0732401 6.39406 0.0601186 5.991C0.193406 5.58796 0.531717 5.28653 0.947718 5.20016L4.68292 4.44585C4.88115 4.41097 5.05216 4.28651 5.14624 4.1087L6.96518 0.634341C7.10049 0.377848 7.325 0.179626 7.5964 0.0770108C7.86787 -0.0256703 8.16745 -0.0256703 8.4389 0.0770108C8.7103 0.179633 8.93481 0.377848 9.07012 0.634341L10.8662 4.1087C10.9579 4.2837 11.1241 4.4077 11.3181 4.44585L15.0475 5.20016C15.3218 5.25593 15.5678 5.40659 15.7419 5.6257C15.9161 5.84476 16.0073 6.11815 15.9995 6.3978C15.9918 6.67746 15.8856 6.94538 15.6995 7.15448L13.0625 10.1318Z" fill="#F7EF6F"/>
</svg>
