<svg width="284" height="135" viewBox="0 0 284 135" fill="none" xmlns="http://www.w3.org/2000/svg">
<path d="M283.15 73.47C282.2 52.87 279.42 32.26 272.12 12.69L270.25 4.52003C233.19 11.81 204.2 38.8 183.69 69.28C156.68 61.08 128.19 60.8 100.48 66.72C87.02 46.29 70.16 28.21 49.48 14.78C38.74 7.77002 25.82 3.18003 13.24 0.0300293L11.05 8.84003C7.36996 18.79 4.91996 28.98 3.23996 39.17C-1.49004 69.72 -0.710033 100.41 3.60997 130.97L30.31 125.69C29.36 121.54 28.46 116.7 27.7 112.12C23.29 83.89 21 54.21 26.58 26.04C43.85 36.43 57.76 51.91 69.42 68.33C76.03 77.42 82.02 88.09 86.99 98.14C97.35 95.38 108.52 92.63 119.39 91.88C141.02 90.12 164.02 91.53 184.44 98.76L196.27 103.2C204.87 85.27 216.16 67.81 229.51 53.07C237.8 43.85 247 35.55 257.44 29.09C263.84 61.98 260.08 96.84 253.38 129.35L280.08 134.63C283.01 114.15 283.91 94.06 283.13 73.46L283.15 73.47Z" fill="#1E4D5A"/>
</svg>
