<svg xmlns="http://www.w3.org/2000/svg" version="1.1" xmlns:xlink="http://www.w3.org/1999/xlink" xmlns:svgjs="http://svgjs.dev/svgjs" width="1000" height="1000"><g clip-path="url(#SvgjsClipPath1011)"><rect width="1000" height="1000" fill="#f7ef6f"></rect><g transform="matrix(1.4604631754642186,0,0,1.4604631754642186,150.00000000000003,333.74087210515336)"><svg xmlns="http://www.w3.org/2000/svg" version="1.1" xmlns:xlink="http://www.w3.org/1999/xlink" xmlns:svgjs="http://svgjs.dev/svgjs" width="479.3" height="227.68"><svg id="Layer_1" xmlns="http://www.w3.org/2000/svg" version="1.1" viewBox="164.92 98.75 479.3 227.68">
  <!-- Generator: Adobe Illustrator 29.0.0, SVG Export Plug-In . SVG Version: 2.1.0 Build 186)  -->
  <defs>
    <style>
      .st0 {
        fill: #1e4d5a;
      }
    </style>
  <clipPath id="SvgjsClipPath1011"><rect width="1000" height="1000" x="0" y="0" rx="350" ry="350"></rect></clipPath></defs>
  <path class="st0" d="M643.77,222.96c-1.6-34.84-6.31-69.7-18.65-102.79,0,0-3.16-13.82-3.16-13.82-62.68,12.33-111.7,57.98-146.4,109.52-45.68-13.87-93.87-14.35-140.72-4.33-22.77-34.56-51.28-65.13-86.26-87.84-18.17-11.85-40.02-19.62-61.29-24.94l-3.7,14.9c-6.22,16.83-10.37,34.06-13.22,51.3-8,51.67-6.67,103.58.63,155.26l45.16-8.93c-1.61-7.02-3.13-15.21-4.42-22.95-7.45-47.75-11.32-97.93-1.89-145.58,29.2,17.57,52.73,43.75,72.45,71.52,11.18,15.38,21.31,33.43,29.72,50.41,17.53-4.66,36.41-9.31,54.79-10.58,36.59-2.97,75.47-.59,110.02,11.64,0,0,20.01,7.51,20.02,7.51,14.55-30.33,33.64-59.85,56.22-84.79,14.02-15.59,29.58-29.63,47.24-40.56,10.82,55.62,4.47,114.59-6.87,169.57,0,0,45.16,8.93,45.16,8.93,4.95-34.64,6.47-68.62,5.16-103.46Z"></path>
</svg></svg></g></g></svg>