<svg xmlns="http://www.w3.org/2000/svg" version="1.1" xmlns:xlink="http://www.w3.org/1999/xlink" width="512" height="512" x="0" y="0" viewBox="0 0 512 512" style="enable-background:new 0 0 512 512" xml:space="preserve" fill-rule="evenodd" class=""><g><path fill="#c8e9ef" d="M377 512H83c-30 0-54-25-54-55V106c0-30 24-55 54-55h4c4 0 7 3 7 7 0 3-2 6-6 7l42 385h289c1-2 3-4 6-4 4 0 7 3 7 7v4c0 30-25 55-55 55z" opacity="1" data-original="#fcbe37" class=""></path><path fill="#9ec8e0" d="M70 53c4-1 9-2 13-2h4c4 0 7 3 7 7 0 3-2 6-6 7l42 385h289c1-2 3-4 6-4 4 0 7 3 7 7v4c0 4-1 9-2 13H135c-35 0-65-28-65-64V53z" opacity="1" data-original="#e3ab32" class=""></path><path fill="#efedef" d="M428 460H135c-30 0-55-24-55-54V55c0-30 25-55 55-55h253c4 0 7 3 7 7s-3 7-7 7v80h81c1-3 3-6 7-6s7 3 7 7v311c0 15-6 28-16 38s-24 16-39 16z" opacity="1" data-original="#efedef" class=""></path><g fill="#b5adb6"><path d="M476 102h-88c-4 0-7-3-7-7V7c0-3 2-5 4-6 3-2 6-1 8 1l88 88c2 2 2 5 1 8-1 2-3 4-6 4zM282 79H138c-4 0-7-3-7-7s3-7 7-7h144c4 0 7 3 7 7s-3 7-7 7zM425 132H138c-4 0-7-3-7-7s3-7 7-7h287c4 0 7 3 7 7s-3 7-7 7zM425 184H138c-4 0-7-3-7-7s3-7 7-7h287c4 0 7 3 7 7s-3 7-7 7zM425 237H138c-4 0-7-3-7-7s3-7 7-7h287c4 0 7 3 7 7s-3 7-7 7zM425 290H138c-4 0-7-3-7-7s3-7 7-7h287c4 0 7 3 7 7s-3 7-7 7zM425 342H138c-4 0-7-3-7-7s3-7 7-7h287c4 0 7 3 7 7s-3 7-7 7zM425 395H138c-4 0-7-3-7-7s3-7 7-7h287c4 0 7 3 7 7s-3 7-7 7z" fill="#b5adb6" opacity="1" data-original="#b5adb6"></path></g></g></svg>