<svg xmlns="http://www.w3.org/2000/svg" version="1.1" xmlns:xlink="http://www.w3.org/1999/xlink" width="512" height="512" x="0" y="0" viewBox="0 0 64 64" style="enable-background:new 0 0 512 512" xml:space="preserve" class=""><g><path fill="#f7ef6f" d="M47 36c-1.077 0-1.99-.84-2.079-1.913l-.91-10.924A2.923 2.923 0 0 1 46.92 20h.16a2.923 2.923 0 0 1 2.909 3.171l-.91 10.916A2.098 2.098 0 0 1 47 36zM47 44c-1.654 0-3-1.346-3-3s1.346-3 3-3 3 1.346 3 3-1.346 3-3 3zM2 52.942V56a2 2 0 0 0 2 2h22a2 2 0 0 0 2-2v-3.058z" opacity="1" data-original="#f0bc5e" class=""></path><path d="M62.461 39.605 53.576 20.22A7.256 7.256 0 0 0 48 16.073V5H26V4c0-1.654-1.346-3-3-3H7C5.346 1 4 2.346 4 4v20c0 1.654 1.346 3 3 3h7v12H4c-1.654 0-3 1.346-3 3v14c0 1.654 1.346 3 3 3h5v2H7v2h16v-2h-2v-2h5c1.654 0 3-1.346 3-3v-2h19v-6h9.075A5.932 5.932 0 0 0 63 42.075c0-.859-.182-1.69-.539-2.47zM24 17H6v-6h18zM7 3h16a1 1 0 0 1 1 1v5H6V4a1 1 0 0 1 1-1zM6 24v-5h18v5a1 1 0 0 1-1 1H7a1 1 0 0 1-1-1zm13 37h-8v-2h8zm8-5a1 1 0 0 1-1 1H4a1 1 0 0 1-1-1V42a1 1 0 0 1 1-1h22a1 1 0 0 1 1 1zm19-4H29V42c0-1.654-1.346-3-3-3H16V27h7c1.654 0 3-1.346 3-3V7h20v9.073a7.253 7.253 0 0 0-5.576 4.147l-8.885 19.386A5.887 5.887 0 0 0 31 42.075 5.932 5.932 0 0 0 36.925 48H46zm11.075-6h-20.15a3.93 3.93 0 0 1-3.568-5.561l8.885-19.386C43.092 19.198 44.96 18 47 18s3.908 1.198 4.758 3.054l8.885 19.386A3.89 3.89 0 0 1 61 42.075 3.93 3.93 0 0 1 57.075 46z" fill="#1e4d5a" opacity="1" data-original="#000000" class=""></path><path d="M8 5h2v2H8zM12 5h2v2h-2zM12 21h2v2h-2zM8 21h2v2H8zM20 13h2v2h-2zM16 13h2v2h-2z" fill="#1e4d5a" opacity="1" data-original="#000000" class=""></path></g></svg>