<svg id="Layer_1" xmlns="http://www.w3.org/2000/svg" version="1.1" viewBox="65.62 127.65 677.88 169.85">
  <!-- Generator: Adobe Illustrator 29.0.0, SVG Export Plug-In . SVG Version: 2.1.0 Build 186)  -->
  <defs>
    <style>
      .st0 {
        isolation: isolate;
      }

      .st1 {
        fill: #FFF;
      }
    </style>
  </defs>
  <g>
    <g class="st0">
      <path class="st1" d="M533.47,166.69l-33.42,95.79c-9.12,25.97-19.83,35-35.28,35-12.94,0-24.67-8.75-26.72-24.67l14.24-9.87c1.21,5.68,6.42,8.85,12.47,8.85,7.26,0,10.89-3.63,14.62-14.89h-13.78l-31.47-90.21h29.6c11.08,31.65,16.11,53.53,19.55,73.73h1.4c4.19-21.04,9.77-44.22,20.39-73.73h28.39Z"/>
      <path class="st1" d="M606.54,262.3v-48.31c0-12.66-5.12-19.36-16.29-19.36-12.47,0-21.04,10.24-21.04,25.79v41.89h-28.21v-95.61h28.67l-4.28,40.96h1.02c5.96-30.72,18.62-43.94,38.63-43.94,22.81,0,29.7,17.03,29.7,40.4v58.18h-28.21Z"/>
      <path class="st1" d="M709.8,262.3c-11.36-24.2-14.52-30.35-15.64-39.1h-.84c-1.02,8.1-2.7,11.08-15.92,39.1h-33.61l32.21-48.78-30.26-46.82h34.07c10.52,26.16,12.47,30.16,13.41,37.52h.93c.65-6.61,1.95-9.78,13.13-37.52h34.07l-30.07,45.34,32.21,50.27h-33.7Z"/>
    </g>
    <path class="st1" d="M417.69,231.01v-103.32h-28.21v102.53c0,17.72,14.36,32.08,32.08,32.08h10.11v-25.32h-8.02c-3.3,0-5.97-2.67-5.97-5.97Z"/>
  </g>
  <path class="st1" d="M348.77,201.12c-.95-20.6-3.73-41.21-11.03-60.78,0,0-1.87-8.17-1.87-8.17-37.06,7.29-66.05,34.28-86.56,64.76-27.01-8.2-55.5-8.48-83.21-2.56-13.46-20.43-30.32-38.51-51-51.94-10.74-7.01-23.66-11.6-36.24-14.75l-2.19,8.81c-3.68,9.95-6.13,20.14-7.81,30.33-4.73,30.55-3.95,61.24.37,91.8l26.7-5.28c-.95-4.15-1.85-8.99-2.61-13.57-4.41-28.23-6.7-57.91-1.12-86.08,17.27,10.39,31.18,25.87,42.84,42.29,6.61,9.09,12.6,19.76,17.57,29.81,10.36-2.76,21.53-5.51,32.4-6.26,21.63-1.76,44.63-.35,65.05,6.88,0,0,11.83,4.44,11.83,4.44,8.6-17.93,19.89-35.39,33.24-50.13,8.29-9.22,17.49-17.52,27.93-23.98,6.4,32.89,2.64,67.75-4.06,100.26,0,0,26.7,5.28,26.7,5.28,2.93-20.48,3.83-40.57,3.05-61.17Z"/>
</svg>
